<svg width="20" height="20" viewBox="0 0 20 20" fill="none" xmlns="http://www.w3.org/2000/svg">
<path d="M9.99969 16.6668C11.4789 16.6666 12.916 16.1745 14.0848 15.2678C15.2536 14.3612 16.0876 13.0916 16.4557 11.659C16.8237 10.2263 16.7049 8.7119 16.1178 7.3542C15.5307 5.9965 14.5087 4.87261 13.2128 4.15946C11.9169 3.44632 10.4206 3.18442 8.95947 3.415C7.49836 3.64559 6.15543 4.35556 5.1421 5.43314C4.12877 6.51072 3.50259 7.89471 3.36215 9.36722C3.22172 10.8397 3.57499 12.3171 4.36636 13.5668L3.33303 16.6668L6.43302 15.6335C7.49938 16.3103 8.7367 16.6688 9.99969 16.6668Z" fill="#B7B9BB" stroke="#B7B9BB" stroke-width="1.48148" stroke-linecap="round" stroke-linejoin="round"/>
</svg>
