<svg width="24" height="24" viewBox="0 0 24 24" fill="none" xmlns="http://www.w3.org/2000/svg">
<path d="M21 12C21 7.02944 16.9706 3 12 3C7.02944 3 3 7.02944 3 12C3 16.9706 7.02944 21 12 21C16.9706 21 21 16.9706 21 12Z" fill="#1D9BF0"/>
<path d="M10.3531 16.7473C14.3446 16.7473 16.5271 13.4398 16.5271 10.5733C16.5271 10.4788 16.5271 10.3843 16.5226 10.2943C16.9456 9.98834 17.3146 9.60584 17.6071 9.16934C17.2201 9.34034 16.8016 9.45734 16.3606 9.51134C16.8106 9.24134 17.1526 8.81834 17.3146 8.30984C16.8961 8.55734 16.4326 8.73734 15.9376 8.83634C15.5416 8.41334 14.9791 8.15234 14.3536 8.15234C13.1566 8.15234 12.1846 9.12434 12.1846 10.3213C12.1846 10.4923 12.2026 10.6588 12.2431 10.8163C10.4386 10.7263 8.84112 9.86234 7.77012 8.54834C7.58562 8.86784 7.47762 9.24134 7.47762 9.63734C7.47762 10.3888 7.86012 11.0548 8.44512 11.4418C8.08962 11.4328 7.75662 11.3338 7.46412 11.1718C7.46412 11.1808 7.46412 11.1898 7.46412 11.1988C7.46412 12.2518 8.21112 13.1248 9.20562 13.3273C9.02562 13.3768 8.83212 13.4038 8.63412 13.4038C8.49462 13.4038 8.35962 13.3903 8.22462 13.3633C8.49912 14.2273 9.30012 14.8528 10.2496 14.8708C9.50712 15.4513 8.57112 15.7978 7.55412 15.7978C7.37862 15.7978 7.20762 15.7888 7.03662 15.7663C7.98612 16.3873 9.12912 16.7473 10.3531 16.7473Z" fill="white"/>
</svg>
