<svg width="24" height="24" viewBox="0 0 24 24" fill="none" xmlns="http://www.w3.org/2000/svg">
<path d="M21 12C21 7.02944 16.9706 3 12 3C7.02944 3 3 7.02944 3 12C3 16.9706 7.02944 21 12 21C16.9706 21 21 16.9706 21 12Z" fill="#1877F2"/>
<path d="M15.5033 14.6016L15.9023 12H13.4062V10.3125C13.4062 9.60059 13.7543 8.90625 14.8723 8.90625H16.0078V6.69141C16.0078 6.69141 14.9777 6.51562 13.9934 6.51562C11.9367 6.51562 10.5938 7.76192 10.5938 10.0172V12H8.30859V14.6016H10.5938V20.891C11.0525 20.9631 11.5219 21 12 21C12.4781 21 12.9475 20.9631 13.4062 20.891V14.6016H15.5033Z" fill="white"/>
</svg>
