<svg width="24" height="24" viewBox="0 0 24 24" fill="none" xmlns="http://www.w3.org/2000/svg">
<path d="M12 21C16.9706 21 21 16.9706 21 12C21 7.02944 16.9706 3 12 3C7.02944 3 3 7.02944 3 12C3 16.9706 7.02944 21 12 21Z" fill="url(#paint0_linear_23482_1198)"/>
<path d="M16.4915 8.27709C16.5716 7.75928 16.0793 7.35057 15.6188 7.55271L6.44888 11.5788C6.11872 11.7238 6.14287 12.2239 6.4853 12.3329L8.37635 12.9352C8.73731 13.0501 9.1281 12.9906 9.4433 12.7729L13.7069 9.82734C13.8354 9.73849 13.9756 9.92132 13.8657 10.0345L10.7967 13.1987C10.499 13.5056 10.5581 14.0258 10.9162 14.2503L14.3523 16.4051C14.7377 16.6467 15.2334 16.404 15.3055 15.9382L16.4915 8.27709Z" fill="white"/>
<defs>
<linearGradient id="paint0_linear_23482_1198" x1="12" y1="3" x2="12" y2="21" gradientUnits="userSpaceOnUse">
<stop stop-color="#37BBFE"/>
<stop offset="1" stop-color="#007DBB"/>
</linearGradient>
</defs>
</svg>
