<svg width="60" height="26" viewBox="0 0 60 26" fill="none" xmlns="http://www.w3.org/2000/svg">
<rect width="60" height="26" rx="13" fill="#FFDD2D"/>
<path d="M28.53 13.1566V11.431H30.4129C30.8117 11.431 31.0412 11.4747 31.2253 11.5451C31.5537 11.6739 31.7094 11.9721 31.7094 12.2871C31.7094 12.6289 31.5235 12.9573 31.1683 13.071C30.9976 13.1281 30.7983 13.1566 30.4129 13.1566H28.53ZM30.7111 9.79102H26.4609V16.5792H28.5283V14.753H30.7094C31.2219 14.753 31.7214 14.7378 32.2072 14.5822C33.1484 14.2823 33.8472 13.4414 33.8472 12.3005C33.8472 11.1596 33.1618 10.3321 32.2357 10.0054C31.7228 9.81953 31.237 9.79102 30.7094 9.79102H30.7111Z" fill="#333333"/>
<path d="M36.2959 15.596H39.4333L39.8322 16.5792H42.1558L39.3749 9.79102H36.3512L33.5703 16.5792H35.9087L36.2942 15.596H36.2959ZM36.8084 14.0982L37.7919 11.3609H37.9493L38.9325 14.0982H36.8084Z" fill="#333333"/>
<path d="M47.192 9.79102L45.51 12.8852H45.4379L43.7409 9.79102H41.332L44.3977 14.7815V16.5792H46.5368V14.6107L49.4469 9.79102H47.192Z" fill="#333333"/>
<path d="M10.5547 7.77734H22.0399V13.5535C22.0399 15.0344 21.2494 16.403 19.9677 17.1437L16.2975 19.2626L12.6269 17.1437C11.3438 16.403 10.5547 15.0344 10.5547 13.5535L10.5547 7.77734Z" fill="#333333"/>
<path fill-rule="evenodd" clip-rule="evenodd" d="M13.7088 10.8184V12.6143C13.9551 12.3361 14.4006 12.1485 14.9114 12.1485H15.4659V14.2375C15.4659 14.7937 15.3154 15.2794 15.0908 15.5474H17.5047C17.2821 15.2794 17.1313 14.7937 17.1313 14.2392V12.1502H17.6858C18.1966 12.1502 18.6439 12.3378 18.8885 12.6161V10.8201H13.707L13.7088 10.8184Z" fill="white"/>
</svg>
