<svg width="60" height="26" viewBox="0 0 60 26" fill="none" xmlns="http://www.w3.org/2000/svg">
<rect width="60" height="26" rx="13" fill="#FF1F00"/>
<path d="M13.5135 5.19991C14.1674 5.17426 14.9064 5.19072 15.565 5.19108L19.101 5.191L21.167 5.19038C22.2233 5.19023 23.0008 5.12974 23.8922 5.81618C24.5261 6.30546 24.9381 7.0278 25.0364 7.8224C25.0928 8.26736 25.0698 9.10894 25.0699 9.59579L25.0692 12.7067L25.0699 15.4549C25.0698 15.865 25.0896 16.653 25.0297 17.0361C24.9474 17.5355 24.7433 18.0068 24.4352 18.4083C23.882 19.1219 23.1743 19.456 22.2962 19.5647C20.3974 19.6152 18.3289 19.5729 16.4162 19.5741L14.5205 19.5748C14.1286 19.575 13.5282 19.5911 13.1571 19.5265C12.6531 19.4388 12.1807 19.2217 11.7859 18.8965C10.5147 17.8586 10.6704 16.6148 10.6698 15.1461L10.6695 12.1334L10.6701 9.41318C10.6703 8.94228 10.6481 8.1376 10.7235 7.69746C10.8111 7.17113 11.0389 6.67812 11.383 6.27024C11.9452 5.59563 12.6532 5.27709 13.5135 5.19991Z" fill="#FEFEFE"/>
<path d="M17.8404 7.76758C18.2861 7.77217 18.6224 7.84612 18.8184 8.29963C19.09 8.92803 19.2916 9.60033 19.5097 10.2513L20.776 14.0284C20.3287 14.0396 19.8812 14.0418 19.4338 14.0349C19.3318 13.6499 19.1579 13.1523 19.0349 12.7635C18.6842 12.751 18.2774 12.7601 17.9223 12.7595L16.6698 12.7581C16.5131 13.1414 16.3618 13.6388 16.215 14.0441C15.8093 14.0319 15.3765 14.0379 14.9688 14.037C15.2102 13.1972 15.6261 12.1961 15.9042 11.3452C16.2374 10.4147 16.5473 9.47428 16.8915 8.54802C17.0796 8.04203 17.3037 7.82268 17.8404 7.76758Z" fill="#FF1F00"/>
<path d="M17.8509 9.18555C17.9532 9.27059 18.5818 11.3628 18.679 11.6774L17.9063 11.6795L17.0156 11.6811L17.8509 9.18555Z" fill="#FEFEFE"/>
<path d="M14.829 15.7363C16.8262 15.7676 18.9093 15.7375 20.9131 15.7367L20.9133 17.0094C18.9347 16.9686 16.8147 16.9987 14.8281 17.0061L14.829 15.7363Z" fill="#FF1F00"/>
<path d="M29.3945 8.06811L29.5109 8.06647L32.0702 8.06457C32.9729 8.06439 33.7462 8.02575 34.67 8.19169C36.7344 8.56256 37.2229 11.3077 35.9092 12.7011C35.196 13.4577 34.0495 13.5009 33.0482 13.4991C32.431 13.4996 31.7132 13.5155 31.1032 13.4924L31.1035 16.9911C30.5482 16.9784 29.9536 16.9907 29.3953 16.9924L29.3945 8.06811Z" fill="#FEFEFE"/>
<path d="M31.104 9.62838L32.779 9.62561C33.182 9.62525 33.5343 9.61763 33.9368 9.66808C34.884 9.78686 35.159 10.9211 34.5375 11.589C34.0922 11.9913 33.3376 11.9198 32.7762 11.9192L31.106 11.9159C31.0883 11.1769 31.1042 10.3727 31.104 9.62838Z" fill="#FF1F00"/>
<path d="M39.6297 10.4646C40.459 10.4017 41.4031 10.5906 42.0215 11.1811C43.0121 12.1278 42.6623 13.5693 42.7242 14.7899C42.7476 15.2482 42.6191 15.5573 43.161 15.6829C43.1539 16.125 43.16 16.5832 43.16 17.0266C42.3508 17.0295 41.6848 17.0703 41.2687 16.2281C40.3526 17.4261 38.4927 17.4005 37.4885 16.3443C37.1035 15.881 36.9366 15.3116 37.0085 14.7169C37.2075 13.0667 38.6491 12.9921 39.9381 12.9935L41.1822 12.9965C41.1706 12.8684 41.1586 12.7479 41.1234 12.6231C41.0438 12.3328 40.8483 12.088 40.5828 11.9459C39.9697 11.6153 39.1163 11.7747 38.7778 12.4289C38.2361 12.4315 37.6942 12.4297 37.1526 12.4237C37.4508 11.1463 38.3758 10.5769 39.6297 10.4646Z" fill="#FEFEFE"/>
<path d="M39.4919 14.1607C39.9987 14.1363 40.6433 14.1555 41.1587 14.1574C41.1682 14.9695 41.1978 15.5201 40.2719 15.8075C39.8448 15.9181 39.3039 15.9054 38.9431 15.6257C38.7541 15.4801 38.6328 15.2635 38.6074 15.0263C38.545 14.4501 38.9911 14.2125 39.4919 14.1607Z" fill="#FF1F00"/>
<path d="M47.9097 10.5996L49.5567 10.6062C49.0014 11.9698 48.4595 13.5029 47.9359 14.8899C47.3521 16.4362 46.7293 18.0242 46.1697 19.5746L44.5334 19.5751C44.6718 19.2562 44.8206 18.8284 44.9469 18.4974C45.1475 17.9718 45.363 17.4321 45.5517 16.9039C45.3612 16.3298 44.9433 15.3852 44.7088 14.8052L43.0117 10.6044L44.8044 10.6016C45.2371 11.7001 45.6332 12.8166 46.0577 13.9185C46.1632 14.1923 46.259 14.4675 46.3772 14.7365C46.5025 14.3363 46.7003 13.8583 46.8446 13.4586C47.1882 12.5062 47.573 11.5541 47.9097 10.5996Z" fill="#FEFEFE"/>
</svg>
