<svg width="20" height="20" viewBox="0 0 20 20" fill="none" xmlns="http://www.w3.org/2000/svg">
<path d="M2.021 14.1668C2.021 13.9307 2.11127 13.7224 2.29183 13.5418L6.72933 9.10433C7.04877 8.78489 7.44461 8.62516 7.91683 8.62516C8.38905 8.62516 8.78488 8.78489 9.10433 9.10433L11.2502 11.2502L16.5835 5.22933C16.7363 5.04877 16.9343 4.9585 17.1777 4.9585C17.421 4.9585 17.6257 5.04183 17.7918 5.2085C17.9446 5.36127 18.0246 5.54516 18.0318 5.76016C18.0391 5.97516 17.966 6.16627 17.8127 6.3335L12.4168 12.4168C12.0974 12.7779 11.7016 12.9691 11.2293 12.9902C10.7571 13.0113 10.3474 12.8479 10.0002 12.5002L7.91683 10.4168L3.54183 14.7918C3.36127 14.9724 3.15294 15.0627 2.91683 15.0627C2.68072 15.0627 2.47239 14.9724 2.29183 14.7918C2.11127 14.6113 2.021 14.4029 2.021 14.1668Z" fill="#FAFDFF"/>
</svg>
