<svg width="30" height="30" viewBox="0 0 30 30" fill="none" xmlns="http://www.w3.org/2000/svg">
<path d="M24.7608 14.7399C24.8457 14.3205 24.8907 13.8865 24.8907 13.4419C24.8907 9.84832 21.9775 6.93506 18.3838 6.93506C15.7188 6.93506 13.4292 8.53807 12.4233 10.8318C11.6503 10.3282 10.7292 10.0329 9.73799 10.0329C7.13178 10.0329 5.00345 12.0569 4.82588 14.6179C3.42221 15.262 2.44531 16.6763 2.44531 18.3219C2.44531 20.5736 4.2708 22.3991 6.52256 22.3991C6.52256 22.3991 10.9397 22.3991 12.4121 22.3991C12.7008 22.3991 12.7148 22.0787 12.7148 22.0787V19.4629C12.7148 19.2394 12.532 19.0566 12.3085 19.0566H11.1944C10.971 19.0566 10.8969 18.9097 11.03 18.7302L14.4258 14.1461C14.5588 13.9666 14.7764 13.9666 14.9094 14.1461L18.3051 18.7302C18.438 18.9097 18.3641 19.0566 18.1408 19.0566H17.0266C16.8032 19.0566 16.6203 19.2394 16.6203 19.4629V22.0839C16.6203 22.0839 16.6372 22.3991 16.9363 22.3991C18.4054 22.3991 22.8125 22.3991 22.8125 22.3991C25.0643 22.3991 26.8898 20.5736 26.8898 18.3219C26.8898 16.776 26.029 15.4311 24.7608 14.7399Z" fill="#161616"/>
</svg>
