<svg width="30" height="30" viewBox="0 0 30 30" fill="none" xmlns="http://www.w3.org/2000/svg">
<path d="M24.7608 14.7404C24.8457 14.321 24.8907 13.887 24.8907 13.4424C24.8907 9.8488 21.9775 6.93555 18.3838 6.93555C15.7188 6.93555 13.4292 8.53856 12.4233 10.8323C11.6503 10.3287 10.7292 10.0334 9.73799 10.0334C7.13178 10.0334 5.00345 12.0574 4.82588 14.6184C3.42221 15.2625 2.44531 16.6768 2.44531 18.3224C2.44531 20.5741 4.2708 22.3996 6.52256 22.3996C6.52256 22.3996 10.9397 22.3996 12.4121 22.3996C12.7008 22.3996 12.7148 22.0792 12.7148 22.0792V19.4634C12.7148 19.2399 12.532 19.0571 12.3085 19.0571H11.1944C10.971 19.0571 10.8969 18.9102 11.03 18.7307L14.4258 14.1466C14.5588 13.9671 14.7764 13.9671 14.9094 14.1466L18.3051 18.7307C18.438 18.9102 18.3641 19.0571 18.1408 19.0571H17.0266C16.8032 19.0571 16.6203 19.2399 16.6203 19.4634V22.0844C16.6203 22.0844 16.6372 22.3996 16.9363 22.3996C18.4054 22.3996 22.8125 22.3996 22.8125 22.3996C25.0643 22.3996 26.8898 20.5741 26.8898 18.3224C26.8898 16.7765 26.029 15.4316 24.7608 14.7404Z" fill="#FAFDFF"/>
</svg>
