<svg width="20" height="20" viewBox="0 0 20 20" fill="none" xmlns="http://www.w3.org/2000/svg">
<path d="M15.3561 17.5C16.5507 17.5 17.5 16.534 17.5 15.3561V7.85819C17.5 6.68031 16.5528 5.71533 15.3561 5.71533H14.2857V4.64285C14.2857 3.46498 13.3385 2.5 12.1418 2.5H4.6439C3.44719 2.5 2.5 3.46498 2.5 4.64285V12.1408C2.5 13.3186 3.44929 14.2847 4.6439 14.2847H5.71428V15.3561C5.71428 16.534 6.66357 17.5 7.85819 17.5H15.3561ZM15.3561 16.4275H7.85819C7.25535 16.4275 6.78676 15.9485 6.78676 15.3561V7.85819C6.78676 7.25535 7.26791 6.78676 7.85819 6.78676H15.3561C15.9464 6.78676 16.4275 7.25535 16.4275 7.85819V15.3561C16.4275 15.9485 15.9589 16.4275 15.3561 16.4275ZM5.71428 13.2122H4.6439C4.04107 13.2122 3.57248 12.7331 3.57248 12.1408V4.64285C3.57248 4.04002 4.05362 3.57143 4.6439 3.57143H12.1418C12.7321 3.57143 13.2132 4.04002 13.2132 4.64285V5.71533H7.85819C6.66148 5.71533 5.71428 6.68031 5.71428 7.85819V13.2122Z" fill="#FAFDFF"/>
</svg>
