<svg width="16" height="16" viewBox="0 0 16 16" fill="none" xmlns="http://www.w3.org/2000/svg">
<path d="M7.25131 9.73614V9.69025C7.25641 9.20331 7.30739 8.81581 7.40427 8.52772C7.50115 8.23964 7.63882 8.00637 7.81727 7.82792C7.99573 7.64946 8.20988 7.48502 8.45972 7.33461C8.61013 7.24283 8.74525 7.13448 8.86507 7.00956C8.9849 6.88209 9.07922 6.7355 9.14806 6.56979C9.21944 6.40408 9.25513 6.22052 9.25513 6.01912C9.25513 5.76928 9.19649 5.55258 9.07922 5.36902C8.96195 5.18547 8.80516 5.04398 8.60886 4.94455C8.41256 4.84512 8.19458 4.79541 7.95494 4.79541C7.74589 4.79541 7.54449 4.83875 7.35073 4.92543C7.15698 5.01211 6.99509 5.1485 6.86507 5.33461C6.73505 5.52071 6.65985 5.76418 6.63945 6.06501H5.67578C5.69618 5.63161 5.80835 5.26068 6.0123 4.9522C6.2188 4.64372 6.49031 4.4079 6.82683 4.24474C7.1659 4.08158 7.54194 4 7.95494 4C8.40363 4 8.79369 4.08923 9.12511 4.26769C9.45908 4.44614 9.71657 4.69089 9.89758 5.00191C10.0811 5.31294 10.1729 5.6673 10.1729 6.06501C10.1729 6.34544 10.1296 6.59911 10.0429 6.826C9.95876 7.0529 9.83639 7.25558 9.67578 7.43403C9.51772 7.61249 9.32651 7.77055 9.10217 7.90822C8.87782 8.04844 8.69809 8.1963 8.56297 8.35182C8.42785 8.50478 8.3297 8.68706 8.26852 8.89866C8.20733 9.11026 8.17419 9.37412 8.16909 9.69025V9.73614H7.25131ZM7.74079 12C7.55214 12 7.39025 11.9324 7.25513 11.7973C7.12001 11.6622 7.05245 11.5003 7.05245 11.3117C7.05245 11.123 7.12001 10.9611 7.25513 10.826C7.39025 10.6909 7.55214 10.6233 7.74079 10.6233C7.92945 10.6233 8.09133 10.6909 8.22645 10.826C8.36157 10.9611 8.42913 11.123 8.42913 11.3117C8.42913 11.4366 8.39726 11.5513 8.33353 11.6558C8.27234 11.7604 8.18948 11.8445 8.08496 11.9082C7.98298 11.9694 7.86826 12 7.74079 12Z" fill="#A1D8EE"/>
</svg>
