<svg width="24" height="24" viewBox="0 0 24 24" fill="none" xmlns="http://www.w3.org/2000/svg">
<g clip-path="url(#clip0_23444_495)">
<path d="M17.5 21.0001C16.75 21.0001 16.1125 20.7376 15.5875 20.2126C15.0625 19.6876 14.8 19.0501 14.8 18.3001C14.8 18.2101 14.8225 18.0001 14.8675 17.6701L8.545 13.9801C8.305 14.2051 8.0275 14.3815 7.7125 14.5093C7.3975 14.6371 7.06 14.7007 6.7 14.7001C5.95 14.7001 5.3125 14.4376 4.7875 13.9126C4.2625 13.3876 4 12.7501 4 12.0001C4 11.2501 4.2625 10.6126 4.7875 10.0876C5.3125 9.56256 5.95 9.30006 6.7 9.30006C7.06 9.30006 7.3975 9.36396 7.7125 9.49176C8.0275 9.61956 8.305 9.79566 8.545 10.0201L14.8675 6.33006C14.8375 6.22506 14.8189 6.12396 14.8117 6.02676C14.8045 5.92956 14.8006 5.82066 14.8 5.70006C14.8 4.95006 15.0625 4.31256 15.5875 3.78756C16.1125 3.26256 16.75 3.00006 17.5 3.00006C18.25 3.00006 18.8875 3.26256 19.4125 3.78756C19.9375 4.31256 20.2 4.95006 20.2 5.70006C20.2 6.45006 19.9375 7.08756 19.4125 7.61256C18.8875 8.13756 18.25 8.40006 17.5 8.40006C17.14 8.40006 16.8025 8.33616 16.4875 8.20836C16.1725 8.08056 15.895 7.90446 15.655 7.68006L9.3325 11.3701C9.3625 11.4751 9.3814 11.5765 9.3892 11.6743C9.397 11.7721 9.4006 11.8807 9.4 12.0001C9.3994 12.1195 9.3958 12.2284 9.3892 12.3268C9.3826 12.4252 9.3637 12.5263 9.3325 12.6301L15.655 16.3201C15.895 16.0951 16.1725 15.919 16.4875 15.7918C16.8025 15.6646 17.14 15.6007 17.5 15.6001C18.25 15.6001 18.8875 15.8626 19.4125 16.3876C19.9375 16.9126 20.2 17.5501 20.2 18.3001C20.2 19.0501 19.9375 19.6876 19.4125 20.2126C18.8875 20.7376 18.25 21.0001 17.5 21.0001Z" fill="#FAFDFF"/>
</g>
<defs>
<clipPath id="clip0_23444_495">
<rect width="24" height="24" fill="white"/>
</clipPath>
</defs>
</svg>
