<svg width="12" height="12" viewBox="0 0 12 12" fill="none" xmlns="http://www.w3.org/2000/svg">
<g clip-path="url(#clip0_23087_25076)">
<path d="M10.5 1.89375V1.5H10.1062L8.41875 3.1875H4.3125V1.7C4.3125 1.58954 4.22296 1.5 4.1125 1.5H3.3875C3.27704 1.5 3.1875 1.58954 3.1875 1.7V3.1875H1.7C1.58954 3.1875 1.5 3.27704 1.5 3.3875V4.1125C1.5 4.22296 1.58954 4.3125 1.7 4.3125H3.1875V8.6125C3.1875 8.72296 3.27704 8.8125 3.3875 8.8125H7.6875V10.3C7.6875 10.4105 7.77704 10.5 7.8875 10.5H8.6125C8.72296 10.5 8.8125 10.4105 8.8125 10.3V8.8125H10.3C10.4105 8.8125 10.5 8.72296 10.5 8.6125V7.8875C10.5 7.77704 10.4105 7.6875 10.3 7.6875H8.8125V3.58125L10.5 1.89375ZM4.3125 4.3125H7.29375L4.3125 7.29375V4.3125ZM7.6875 7.6875H4.70625L7.6875 4.70625V7.6875Z" fill="#FAFDFF"/>
</g>
<defs>
<clipPath id="clip0_23087_25076">
<rect width="9" height="9" fill="white" transform="translate(1.5 1.5)"/>
</clipPath>
</defs>
</svg>
