<svg width="24" height="24" viewBox="0 0 24 24" fill="none" xmlns="http://www.w3.org/2000/svg">
<path d="M18.9824 8.57129C19.3709 8.57129 19.6689 8.86836 19.6689 9.25684V19.3145C19.6688 19.7028 19.3709 20 18.9824 20H5.08594C4.6975 20 4.40055 19.7029 4.40039 19.3145V9.25684C4.40047 8.86836 4.6974 8.57129 5.08594 8.57129H18.9824ZM17.8398 6.28613C18.2284 6.28613 18.5254 6.58314 18.5254 6.97168C18.5253 7.36015 18.2284 7.65723 17.8398 7.65723H6.22852C5.83998 7.65723 5.54305 7.36015 5.54297 6.97168C5.54297 6.58314 5.83993 6.28613 6.22852 6.28613H17.8398ZM16.6973 4C17.0856 4.00016 17.3827 4.29718 17.3828 4.68555C17.3828 5.07399 17.0857 5.37094 16.6973 5.37109H7.37109C6.98258 5.37101 6.68555 5.07404 6.68555 4.68555C6.6856 4.2971 6.98262 4.00008 7.37109 4H16.6973Z" fill="#FAFDFF"/>
</svg>
