<svg width="20" height="20" viewBox="0 0 20 20" fill="none" xmlns="http://www.w3.org/2000/svg">
<path d="M4.1665 16.6667V15.8333C4.1665 14.2862 4.78109 12.8025 5.87505 11.7086C6.96901 10.6146 8.45274 10 9.99984 10M9.99984 10C11.5469 10 13.0307 10.6146 14.1246 11.7086C15.2186 12.8025 15.8332 14.2862 15.8332 15.8333V16.6667M9.99984 10C10.8839 10 11.7317 9.64882 12.3569 9.0237C12.982 8.39858 13.3332 7.55073 13.3332 6.66668C13.3332 5.78262 12.982 4.93478 12.3569 4.30965C11.7317 3.68453 10.8839 3.33334 9.99984 3.33334C9.11578 3.33334 8.26794 3.68453 7.64281 4.30965C7.01769 4.93478 6.6665 5.78262 6.6665 6.66668C6.6665 7.55073 7.01769 8.39858 7.64281 9.0237C8.26794 9.64882 9.11578 10 9.99984 10Z" stroke="#6B6F73" stroke-width="1.25" stroke-linecap="round" stroke-linejoin="round"/>
</svg>
