<svg width="12" height="12" viewBox="0 0 12 12" fill="none" xmlns="http://www.w3.org/2000/svg">
<path d="M2.5498 7C2.66026 7 2.75 7.08974 2.75 7.2002V8.75C2.75 9.02614 2.97386 9.25 3.25 9.25H4.7998C4.91026 9.25 5 9.33974 5 9.4502V9.7998C5 9.91026 4.91026 10 4.7998 10H3C2.44772 10 2 9.55228 2 9V7.2002C2 7.08974 2.08974 7 2.2002 7H2.5498ZM9.7998 7C9.91026 7 10 7.08974 10 7.2002V9C10 9.55228 9.55228 10 9 10H7.2002C7.08974 10 7 9.91026 7 9.7998V9.4502C7 9.33974 7.08974 9.25 7.2002 9.25H8.75C9.02614 9.25 9.25 9.02614 9.25 8.75V7.2002C9.25 7.08974 9.33974 7 9.4502 7H9.7998ZM4.7998 2C4.91026 2 5 2.08974 5 2.2002V2.5498C5 2.66026 4.91026 2.75 4.7998 2.75H3.25C2.97386 2.75 2.75 2.97386 2.75 3.25V4.7998C2.75 4.91026 2.66026 5 2.5498 5H2.2002C2.08974 5 2 4.91026 2 4.7998V3C2 2.44772 2.44772 2 3 2H4.7998ZM9 2C9.55228 2 10 2.44772 10 3V4.7998C10 4.91026 9.91026 5 9.7998 5H9.4502C9.33974 5 9.25 4.91026 9.25 4.7998V3.25C9.25 2.97386 9.02614 2.75 8.75 2.75H7.2002C7.08974 2.75 7 2.66026 7 2.5498V2.2002C7 2.08974 7.08974 2 7.2002 2H9Z" fill="#FAFDFF"/>
</svg>
