<svg width="24" height="24" viewBox="0 0 24 24" fill="none" xmlns="http://www.w3.org/2000/svg">
<g clip-path="url(#clip0_23442_1601)">
<path d="M12.2643 20.9999L10.921 19.7956C9.36149 18.3905 8.07221 17.1784 7.05313 16.1593C6.03406 15.1403 5.22343 14.2253 4.62125 13.4143C4.01907 12.6034 3.59847 11.8585 3.35946 11.1798C3.12044 10.501 3.00062 9.80619 3 9.09531C3 7.6439 3.48638 6.43182 4.45913 5.45907C5.43188 4.48631 6.64396 3.99994 8.09537 3.99994C8.89827 3.99994 9.66258 4.16978 10.3883 4.50948C11.114 4.84917 11.7393 5.32782 12.2643 5.94544C12.7893 5.32782 13.4146 4.84917 14.1403 4.50948C14.866 4.16978 15.6303 3.99994 16.4332 3.99994C17.8847 3.99994 19.0967 4.48631 20.0695 5.45907C21.0422 6.43182 21.5286 7.6439 21.5286 9.09531C21.5286 9.80557 21.4091 10.5004 21.1701 11.1798C20.9311 11.8592 20.5102 12.604 19.9074 13.4143C19.3046 14.2246 18.4939 15.1396 17.4755 16.1593C16.457 17.179 15.1677 18.3911 13.6076 19.7956L12.2643 20.9999Z" fill="#F24D4D"/>
</g>
<defs>
<clipPath id="clip0_23442_1601">
<rect width="24" height="24" fill="white"/>
</clipPath>
</defs>
</svg>
