<svg width="20" height="20" viewBox="0 0 20 20" fill="none" xmlns="http://www.w3.org/2000/svg">
<path d="M9.99979 14.396L6.54145 16.4793C6.38867 16.5766 6.22895 16.6182 6.06229 16.6043C5.89562 16.5905 5.74979 16.5349 5.62479 16.4377C5.49979 16.3405 5.40256 16.2191 5.33312 16.0735C5.26367 15.928 5.24979 15.7646 5.29145 15.5835L6.20812 11.646L3.14562 9.00017C3.00673 8.87517 2.92006 8.73267 2.88562 8.57267C2.85117 8.41267 2.86145 8.25656 2.91645 8.10434C2.97145 7.95212 3.05479 7.82712 3.16645 7.72934C3.27812 7.63156 3.4309 7.56906 3.62479 7.54184L7.66645 7.18767L9.22895 3.47934C9.2984 3.31267 9.40617 3.18767 9.55229 3.10434C9.6984 3.02101 9.84756 2.97934 9.99979 2.97934C10.152 2.97934 10.3012 3.02101 10.4473 3.10434C10.5934 3.18767 10.7012 3.31267 10.7706 3.47934L12.3331 7.18767L16.3748 7.54184C16.5692 7.56962 16.722 7.63212 16.8331 7.72934C16.9442 7.82656 17.0276 7.95156 17.0831 8.10434C17.1387 8.25712 17.1492 8.41351 17.1148 8.57351C17.0803 8.73351 16.9934 8.87573 16.854 9.00017L13.7915 11.646L14.7081 15.5835C14.7498 15.7641 14.7359 15.9274 14.6665 16.0735C14.597 16.2196 14.4998 16.341 14.3748 16.4377C14.2498 16.5343 14.104 16.5899 13.9373 16.6043C13.7706 16.6188 13.6109 16.5771 13.4581 16.4793L9.99979 14.396Z" fill="#FFCC00"/>
</svg>
